<svg id="Layer_1" data-name="Layer 1" xmlns="http://www.w3.org/2000/svg" viewBox="0 0 512 512"><title>bells</title><rect y="2.15" width="512" height="507.71" fill="#00833a"/><path d="M442.25,299.26a9.18,9.18,0,0,0-9.1-4.61,35.75,35.75,0,0,1-35.44-18L374,234.49a60.25,60.25,0,0,0-31-26.78A103,103,0,0,0,331,192.46s47.5-51.42,9.8-68.43c-31.72-14.32-67.22,36.08-75.46,48.67a11.71,11.71,0,0,0-6.85-2.23h-5a11.71,11.71,0,0,0-6.85,2.23c-8.24-12.6-43.74-63-75.46-48.67-37.7,17,9.8,68.43,9.8,68.43A103,103,0,0,0,169,207.71a60.25,60.25,0,0,0-31,26.78l-23.76,42.21a35.75,35.75,0,0,1-35.44,18,9.18,9.18,0,0,0-5.6,17.11l52.92,29.79a18.85,18.85,0,1,0,32,18L211,389.32a9.18,9.18,0,0,0,11.72-13.66,35.75,35.75,0,0,1-3-39.61l23.76-42.21a60.51,60.51,0,0,0-9.27-71.77c6-7.77,10.56-14.66,12.9-18.33a11.72,11.72,0,0,0,6.37,1.89h5a11.72,11.72,0,0,0,6.37-1.89c2.34,3.67,6.92,10.56,12.9,18.33a60.51,60.51,0,0,0-9.27,71.77L292.27,336a35.75,35.75,0,0,1-3,39.61A9.18,9.18,0,0,0,301,389.32l52.92-29.79a18.85,18.85,0,1,0,32-18l52.92-29.79A9.18,9.18,0,0,0,442.25,299.26Z" fill="#fff"/></svg>